<svg width="1920" height="1080" viewBox="0 0 1920 1080" fill="none" xmlns="http://www.w3.org/2000/svg">
<g clip-path="url(#clip0_1511_941)">
<path fill-rule="evenodd" clip-rule="evenodd" d="M684.118 719.823C860.812 666.079 1066.25 677.659 1234.85 708.969C1319.13 724.62 1394.16 745.193 1451.73 764.969C1478.52 774.173 1501.53 783.2 1519.91 791.472C1495.52 806.646 1477.41 827.576 1469.67 855.942C1464.87 873.552 1474.71 889.726 1490.59 900.032C1506.5 910.351 1528.79 915.064 1549.82 909.773C1570.76 904.504 1587.26 891.342 1592.16 873.84C1597.09 856.249 1590.14 834.917 1565.52 813.716C1558.25 807.453 1544.83 799.701 1526.35 791.119C1550.87 777.09 1581.34 768.415 1614.06 763.602C1680.22 753.872 1754.9 760.053 1806.05 769.177L1778.91 785.139C1778.19 785.559 1777.96 786.478 1778.38 787.192C1778.8 787.907 1779.72 788.145 1780.43 787.725L1812.28 768.999C1812.67 768.764 1812.94 768.358 1813 767.899C1813.06 767.44 1812.91 766.979 1812.58 766.65L1789.57 743.444C1788.98 742.856 1788.03 742.852 1787.44 743.435C1786.86 744.018 1786.85 744.968 1787.44 745.556L1808.22 766.519C1756.84 757.199 1680.91 750.737 1613.62 760.634C1580 765.579 1548.35 774.641 1523.02 789.587C1504.23 781.037 1480.48 771.673 1452.7 762.131C1394.99 742.307 1319.82 721.697 1235.39 706.019C1066.58 674.669 860.597 663.008 683.245 716.953C369.999 812.231 207.688 1065.78 178.735 1111.19C178.29 1111.89 178.495 1112.82 179.194 1113.26C179.892 1113.71 180.82 1113.5 181.265 1112.81C210.157 1067.49 371.97 814.767 684.118 719.823ZM1472.57 856.732C1480.23 828.627 1498.47 807.918 1523.2 792.97C1523.45 793.081 1523.69 793.192 1523.93 793.302C1542.97 802.083 1556.48 809.887 1563.56 815.989C1587.67 836.754 1593.77 856.972 1589.28 873.031C1584.75 889.178 1569.35 901.765 1549.09 906.864C1528.92 911.94 1507.47 907.406 1492.23 897.515C1476.96 887.611 1468.23 872.61 1472.57 856.732Z" fill="white" fill-opacity="0.6"/>
</g>
<defs>
<clipPath id="clip0_1511_941">
<rect width="1920" height="1080" fill="white"/>
</clipPath>
</defs>
</svg>
