<svg width="771" height="124" viewBox="0 0 771 124" fill="none" xmlns="http://www.w3.org/2000/svg">
<path d="M3 68.89C10.2533 48.5039 40.9539 32.6394 59.5868 26.1107C105.459 10.0381 150.587 7.57366 198.568 16.6042C227.056 21.9659 255.573 28.4002 283.33 36.8056C296.262 40.7218 308.682 44.5897 317.424 56.4164C326.166 68.2432 316.376 83.4275 302.181 88.0953C267.774 99.4094 219.017 92.1308 234.556 41.0835C238.162 29.2376 247.996 16.9502 258.469 10.6627C274.409 1.09412 290.82 3.19567 302.181 3.19584C318.55 3.80438 329.403 6.28941 345.599 8.99903C363.591 12.0091 377.759 21.5525 393.426 30.3887C420.506 45.6629 442.808 65.553 465.876 86.0018C504.955 120.644 560.358 120.155 598.229 120.155C671.564 117.538 678.323 110.753 708.055 101.57C730.778 94.5522 755.183 81.7182 767.988 71.5043M767.988 71.5043C768.385 70.9914 723.624 61.4438 723.624 61.4438C719.416 62.3652 767.988 71.5043 767.988 71.5043ZM767.988 71.5043C768.243 78.4149 764.442 87.9781 761.495 97.3465C758.97 105.372 758.55 107.484 753.921 121" stroke="white" stroke-opacity="0.6" stroke-width="5" stroke-linecap="round"/>
</svg>
