<svg width="769" height="123" viewBox="0 0 769 123" fill="none" xmlns="http://www.w3.org/2000/svg">
<path d="M2 68.89C9.25328 48.5039 39.9539 32.6394 58.5868 26.1107C104.459 10.0381 149.587 7.57366 197.568 16.6042C226.056 21.9659 254.573 28.4002 282.33 36.8056C295.262 40.7218 307.682 44.5897 316.424 56.4164C325.166 68.2432 315.376 83.4275 301.181 88.0953C266.774 99.4094 218.017 92.1308 233.556 41.0835C237.162 29.2376 246.996 16.9502 257.469 10.6627C273.409 1.09412 289.82 3.19567 301.181 3.19584C317.55 3.80438 328.403 6.28941 344.599 8.99903C362.591 12.0091 376.759 21.5525 392.426 30.3887C419.506 45.6629 441.808 65.553 464.876 86.0018C503.955 120.644 559.358 120.155 597.229 120.155C670.564 117.538 677.323 110.753 707.055 101.57C729.778 94.5522 754.183 81.7182 766.988 71.5043M766.988 71.5043C767.385 70.9914 722.624 61.4438 722.624 61.4438C718.416 62.3652 766.988 71.5043 766.988 71.5043ZM766.988 71.5043C767.243 78.4149 763.442 87.9781 760.495 97.3465C757.97 105.372 757.55 107.484 752.921 121" stroke="white" stroke-opacity="0.6" stroke-width="4" stroke-linecap="round"/>
</svg>
