<svg width="1844" height="1080" viewBox="0 0 1844 1080" fill="none" xmlns="http://www.w3.org/2000/svg">
<path d="M2 -15C17.9727 41.9088 72.9267 87.1334 105.127 119.218C212.15 225.855 332.074 289.016 458.08 320.199C508.661 332.716 562.007 337.766 613.223 331.249C629.197 329.216 651.945 324.675 655.438 295.335C661.98 240.393 625.797 215.306 594.979 232.485C557.089 253.607 541.719 315.558 556.533 372.689C569.893 424.21 607.352 460.021 639.004 480.891C698.4 520.055 767.331 531.095 831.236 536.604C946.148 546.512 1060.64 538.158 1175.29 559.166C1300.92 582.185 1425.53 630.726 1542.87 703.283C1620.69 751.401 1693.06 825.463 1754.85 912.091C1789.34 960.441 1814.83 1021.38 1842 1079" stroke="white" stroke-opacity="0.65" stroke-width="3" stroke-linecap="round"/>
</svg>
