<svg width="1930" height="1080" viewBox="0 0 1930 1080" fill="none" xmlns="http://www.w3.org/2000/svg">
<g clip-path="url(#clip0_1375_129)">
<path d="M0 1080C27.3495 1036.44 55.529 1002.31 99.5743 974.557C149.829 942.888 209.096 925.558 268.418 918.812C297.969 915.452 352.416 906.971 375.47 930.339C387.999 943.039 385.618 969.224 369.566 977.958C335.776 996.345 301.676 986.07 304.823 945.267C309.124 889.509 389.282 861.152 437.261 854.753C533.639 841.899 631.098 853.993 728.309 851.918C884.281 848.59 1057.2 816.577 1182.3 722.099C1339.3 603.523 1414.3 421.178 1549.9 284.265C1679.14 153.761 1873.33 97 2058 97" stroke="white" stroke-opacity="0.6" stroke-width="3" stroke-linecap="round"/>
</g>
<defs>
<clipPath id="clip0_1375_129">
<rect width="1930" height="1080" fill="white"/>
</clipPath>
</defs>
</svg>
