<svg width="1930" height="1080" viewBox="0 0 1930 1080" fill="none" xmlns="http://www.w3.org/2000/svg">
<g clip-path="url(#clip0_1341_25)">
<path d="M0 507.107C17.6371 488.926 32.8609 465.948 52.9112 452.563C137.748 395.931 242.185 373.833 333.705 355.035C485.067 323.944 644.059 302.611 797.308 325.776C876.634 337.767 1103.27 394.08 1066.06 561.29C1047.29 645.641 974.525 672.387 914.888 675.435C892.533 676.577 790.033 693.608 788.349 643.648C786.36 584.614 872.287 583.623 898.651 581.518C1009.42 572.673 1111.25 596.153 1206.32 673.629C1254.54 712.923 1282.12 738.564 1342.1 746.956C1536.14 774.104 1735.15 760.682 1930 760.682" stroke="white" stroke-opacity="0.7" stroke-width="3" stroke-linecap="round"/>
</g>
<defs>
<clipPath id="clip0_1341_25">
<rect width="1930" height="1080" fill="white"/>
</clipPath>
</defs>
</svg>
