<svg width="1930" height="1080" viewBox="0 0 1930 1080" fill="none" xmlns="http://www.w3.org/2000/svg">
<g clip-path="url(#clip0_1374_117)">
<path d="M0 -23C2.70302 58.4095 82.4921 131.628 122.635 179.606C187.993 257.722 266.377 327.009 348.182 364.857C497.324 433.858 663.856 436.348 819.758 428.26C885.006 424.874 948.046 410.323 1011.68 390.713C1077.36 370.471 1140.54 337.267 1208.14 331.561C1280.98 325.414 1360.66 372.84 1423.58 420.821C1476.36 461.076 1531.03 533.602 1546.72 617.406C1570.51 744.482 1474.89 787.08 1403.85 764.756C1373.04 755.071 1330.27 733.799 1312.07 694.269C1287.88 641.747 1354.48 640.784 1374.02 640.784C1514.06 640.784 1647.61 701.739 1745.72 845.515C1805.35 932.904 1858.74 1048.74 1948 1080" stroke="white" stroke-opacity="0.6" stroke-width="3" stroke-linecap="round"/>
</g>
<defs>
<clipPath id="clip0_1374_117">
<rect width="1930" height="1080" fill="white"/>
</clipPath>
</defs>
</svg>
