<svg width="1930" height="1080" viewBox="0 0 1930 1080" fill="none" xmlns="http://www.w3.org/2000/svg">
<g clip-path="url(#clip0_1375_129)">
<path d="M12.5 1009C25.5 943 76.5 855.51 212.574 779.356C262.829 751.231 322.096 735.84 381.418 729.849C410.969 726.865 465.416 719.333 488.47 740.086C500.999 751.365 492.052 791.243 476 799C442.21 815.329 414.676 789.581 417.823 753.344C422.124 703.825 502.282 678.641 550.261 672.958C646.639 661.543 744.098 672.283 841.309 670.441C997.281 667.485 1170.2 639.055 1295.3 555.149C1452.3 449.842 1527.3 287.902 1662.9 166.31C1792.14 50.4094 1986.33 0 2171 0" stroke="white" stroke-opacity="0.6" stroke-width="3" stroke-linecap="round"/>
</g>
<defs>
<clipPath id="clip0_1375_129">
<rect width="1930" height="1080" fill="white"/>
</clipPath>
</defs>
</svg>
