<svg width="1930" height="1080" viewBox="0 0 1930 1080" fill="none" xmlns="http://www.w3.org/2000/svg">
<g clip-path="url(#clip0_1354_92)">
<path d="M-50 -88C-32.812 -27.2418 26.3233 21.0418 60.9735 55.2963C176.14 169.147 305.188 236.58 440.782 269.872C495.211 283.236 552.617 288.628 607.729 281.67C624.919 279.5 649.397 274.651 653.156 243.327C660.196 184.668 621.26 157.884 588.097 176.226C547.324 198.776 530.785 264.918 546.726 325.912C561.102 380.919 601.411 419.152 635.472 441.434C699.386 483.247 773.563 495.033 842.33 500.916C965.985 511.493 1089.19 502.574 1212.57 525.003C1347.75 549.58 1481.84 601.404 1608.11 678.869C1691.85 730.242 1769.73 809.313 1836.22 901.801C1873.34 953.421 1900.76 1018.48 1930 1080" stroke="white" stroke-opacity="0.6" stroke-width="3" stroke-linecap="round"/>
</g>
<defs>
<clipPath id="clip0_1354_92">
<rect width="1930" height="1080" fill="white"/>
</clipPath>
</defs>
</svg>
