<svg width="1930" height="1080" viewBox="0 0 1930 1080" fill="none" xmlns="http://www.w3.org/2000/svg">
<g clip-path="url(#clip0_1374_117)">
<path d="M0 292C2.70362 350.128 82.5103 402.408 122.662 436.665C188.034 492.442 266.436 541.914 348.259 568.938C497.433 618.207 664.002 619.985 819.939 614.209C885.202 611.792 948.255 601.402 1011.9 587.4C1077.6 572.947 1140.79 549.238 1208.41 545.164C1281.26 540.776 1360.96 574.638 1423.89 608.898C1476.68 637.641 1531.36 689.426 1547.06 749.264C1570.86 839.999 1475.21 870.415 1404.16 854.475C1373.34 847.56 1330.57 832.371 1312.36 804.146C1288.16 766.644 1354.78 765.956 1374.32 765.956C1514.4 765.956 1647.97 809.48 1746.1 912.139C1805.75 974.537 1859.15 1057.25 1948.43 1079.57" stroke="white" stroke-width="3" stroke-linecap="round"/>
</g>
<defs>
<clipPath id="clip0_1374_117">
<rect width="1930" height="1080" fill="white"/>
</clipPath>
</defs>
</svg>
