<svg width="1984" height="775" viewBox="0 0 1984 775" fill="none" xmlns="http://www.w3.org/2000/svg">
<path d="M2 2C19.188 42.1067 78.3233 73.9788 112.973 96.5903C228.14 171.744 357.188 216.256 492.782 238.232C547.211 247.054 604.617 250.613 659.729 246.02C676.919 244.588 701.397 241.387 705.156 220.71C712.196 181.989 673.26 164.309 640.097 176.416C599.324 191.302 582.785 234.962 598.726 275.225C613.102 311.535 653.411 336.772 687.472 351.481C751.386 379.081 825.563 386.862 894.33 390.745C1017.98 397.727 1141.19 391.84 1264.57 406.645C1399.75 422.868 1533.84 457.077 1660.11 508.212C1743.85 542.123 1821.73 594.319 1888.22 655.371C1925.34 689.445 1952.76 732.39 1982 773" stroke="white" stroke-opacity="0.65" stroke-width="3" stroke-linecap="round"/>
</svg>
