<svg width="1930" height="1080" viewBox="0 0 1930 1080" fill="none" xmlns="http://www.w3.org/2000/svg">
<g clip-path="url(#clip0_1375_129)">
<path d="M0 944C27.3495 906.469 55.529 877.061 99.5743 853.145C149.829 825.858 209.096 810.925 268.418 805.113C297.969 802.217 352.416 794.91 375.47 815.045C387.999 825.987 385.618 848.55 369.566 856.076C335.776 871.919 301.676 863.065 304.823 827.908C309.124 779.864 389.282 755.43 437.261 749.916C533.639 738.841 631.098 749.261 728.309 747.474C884.281 744.606 1057.2 717.022 1182.3 635.615C1339.3 533.445 1414.3 376.327 1549.9 258.357C1679.14 145.908 1873.33 97 2058 97" stroke="white" stroke-opacity="0.75" stroke-width="3" stroke-linecap="round"/>
</g>
<defs>
<clipPath id="clip0_1375_129">
<rect width="1930" height="1080" fill="white"/>
</clipPath>
</defs>
</svg>
