<svg width="1930" height="1080" viewBox="0 0 1930 1080" fill="none" xmlns="http://www.w3.org/2000/svg">
<g clip-path="url(#clip0_1354_92)">
<path d="M-50 309C-32.812 349.107 26.3233 380.979 60.9735 403.59C176.14 478.744 305.188 523.256 440.782 545.232C495.211 554.054 552.617 557.613 607.729 553.02C624.919 551.588 649.397 548.387 653.156 527.71C660.196 488.989 621.26 471.309 588.097 483.416C547.324 498.302 530.785 541.962 546.726 582.225C561.102 618.535 601.411 643.772 635.472 658.481C699.386 686.081 773.563 693.862 842.33 697.745C965.985 704.727 1089.19 698.84 1212.57 713.645C1347.75 729.868 1481.84 764.077 1608.11 815.212C1691.85 849.123 1769.73 901.319 1836.22 962.371C1873.34 996.445 1900.76 1039.39 1930 1080" stroke="white" stroke-opacity="0.6" stroke-width="3" stroke-linecap="round"/>
</g>
<defs>
<clipPath id="clip0_1354_92">
<rect width="1930" height="1080" fill="white"/>
</clipPath>
</defs>
</svg>
