<svg width="811" height="561" viewBox="0 0 811 561" fill="none" xmlns="http://www.w3.org/2000/svg">
<path d="M2 2C3.9669 5.58236 6.26603 4.60077 8.66717 5.09773C24.8838 8.45407 41.4067 17.587 57.3103 25.0781C97.1595 43.8484 136.112 74.3703 174.054 107.478C203.246 132.951 231.306 163.424 257.462 202.578C282.917 240.684 313.592 301.916 301.615 379.458C293.224 433.783 264.684 472.931 240.658 479.515C227.27 483.184 213.058 481.811 200.11 472.855C186.567 463.486 165.923 447.374 157.386 419.574C138.65 358.562 218.712 366.846 226.779 367.842C334.429 381.13 436.982 463.887 541.361 517.462C591.576 543.237 641.825 558.153 693.345 558.972C715.925 559.331 738.169 556.297 760.425 547.355C777.344 540.558 792.621 528.29 809 517.772" stroke="white" stroke-width="3" stroke-linecap="round"/>
</svg>
