<svg width="103" height="116" viewBox="0 0 103 116" fill="none" xmlns="http://www.w3.org/2000/svg">
<path fill-rule="evenodd" clip-rule="evenodd" d="M51.5043 9.59957e-07C51.5029 8.27614e-07 51.5014 0 51.5 0C51.4999 0 51.4997 9.09877e-08 51.4996 9.09877e-08C51.2624 31.9125 28.3363 57.7316 3.65286e-07 57.9979C3.43702e-07 57.9986 0 57.9993 0 58C0 58.0007 3.43703e-07 58.0014 3.65286e-07 58.0021C28.3363 58.2684 51.2624 84.0875 51.4996 116C51.4997 116 51.4999 116 51.5 116C51.5014 116 51.5029 116 51.5043 116C51.7415 84.089 74.6655 58.2707 103 58.0021C103 58.0014 103 58.0007 103 58C103 57.9993 103 57.9986 103 57.9979C74.6655 57.7293 51.7415 31.911 51.5043 9.59957e-07Z" fill="white"/>
</svg>
